<?xml version="1.0" encoding="UTF-8" standalone="no"?>
<svg
   xmlns:dc="http://purl.org/dc/elements/1.1/"
   xmlns:cc="http://creativecommons.org/ns#"
   xmlns:rdf="http://www.w3.org/1999/02/22-rdf-syntax-ns#"
   xmlns:svg="http://www.w3.org/2000/svg"
   xmlns="http://www.w3.org/2000/svg"
   xmlns:sodipodi="http://sodipodi.sourceforge.net/DTD/sodipodi-0.dtd"
   xmlns:inkscape="http://www.inkscape.org/namespaces/inkscape"
   viewBox="0 0 22 22"
   version="1.1"
   id="svg6"
   sodipodi:docname="waypoint-skip.svg"
   inkscape:version="0.92.4 5da689c313, 2019-01-14">
  <metadata
     id="metadata10">
    <rdf:RDF>
      <cc:Work
         rdf:about="">
        <dc:format>image/svg+xml</dc:format>
        <dc:type
           rdf:resource="http://purl.org/dc/dcmitype/StillImage" />
      </cc:Work>
    </rdf:RDF>
  </metadata>
  <sodipodi:namedview
     pagecolor="#ffffff"
     bordercolor="#666666"
     borderopacity="1"
     objecttolerance="10"
     gridtolerance="10"
     guidetolerance="10"
     inkscape:pageopacity="0"
     inkscape:pageshadow="2"
     inkscape:window-width="640"
     inkscape:window-height="480"
     id="namedview8"
     showgrid="false"
     inkscape:zoom="10.772727"
     inkscape:cx="-5.6624473"
     inkscape:cy="11"
     inkscape:current-layer="svg6" />
  <defs
     id="defs3051">
    <style
       type="text/css"
       id="current-color-scheme">
      .ColorScheme-Text {
        color:#232629;
      }
      </style>
  </defs>
  <path
     style="fill:#eff0f1;fill-opacity:1;stroke:none"
     transform="translate(-1-1)"
     d="m12 4c-2.027598 0-3.87132.756694-5.28125 2-.126239.11132-.25603.22478-.375.34375l-.34375.375c-1.243306 1.40993-2 3.253652-2 5.28125 0 4.41828 3.58172 8 8 8 2.027598 0 3.87132-.756694 5.28125-2l.375-.34375c.11897-.11897.23243-.248761.34375-.375 1.243306-1.40993 2-3.253652 2-5.28125 0-4.41828-3.58172-8-8-8m0 1c3.86599 0 7 3.13401 7 7 0 1.75366-.653215 3.334268-1.71875 4.5625l-9.84375-9.84375c1.228231-1.065535 2.80884-1.71875 4.5625-1.71875m-5.28125 2.4375l9.84375 9.84375c-1.228232 1.065535-2.80884 1.71875-4.5625 1.71875-3.86599 0-7-3.13401-7-7 0-1.75366.653215-3.334269 1.71875-4.5625"
     class="ColorScheme-Text"
     id="path4" />
</svg>
